<?xml version="1.0" standalone="no"?>
<!DOCTYPE svg PUBLIC "-//W3C//DTD SVG 20010904//EN"
 "http://www.w3.org/TR/2001/REC-SVG-20010904/DTD/svg10.dtd">
<svg version="1.0" xmlns="http://www.w3.org/2000/svg"
 width="512.000000pt" height="512.000000pt" viewBox="0 0 512.000000 512.000000"
 preserveAspectRatio="xMidYMid meet">

<g transform="translate(0.000000,512.000000) scale(0.100000,-0.100000)"
fill="#000000" stroke="none">
<path d="M1420 4625 c-234 -47 -430 -197 -535 -410 -80 -161 -79 -148 -83
-701 l-3 -492 -72 -26 c-173 -64 -306 -202 -371 -386 l-31 -85 -3 -884 c-2
-617 1 -901 8 -938 28 -131 132 -268 248 -327 117 -59 3 -56 1973 -56 1187 0
1825 4 1860 10 185 35 346 197 379 381 7 37 10 366 8 935 l-3 879 -28 79 c-37
105 -69 157 -146 239 -69 73 -163 134 -248 162 l-52 16 -3 492 c-4 556 -3 541
-84 705 -105 210 -310 362 -551 408 -105 20 -2163 19 -2263 -1z m2233 -320
c165 -43 291 -165 332 -320 12 -49 15 -136 15 -511 l0 -451 -72 -27 c-174 -64
-308 -203 -372 -386 -26 -75 -30 -102 -34 -227 l-5 -143 -957 0 -957 0 -5 143
c-7 214 -50 325 -177 460 -69 73 -163 134 -248 162 l-53 17 0 452 c0 375 3
462 15 511 39 149 167 279 315 319 83 22 2118 23 2203 1z m-2562 -1612 c66
-29 124 -86 156 -151 l28 -57 3 -923 2 -923 -269 3 c-254 3 -271 4 -297 24
-15 11 -37 33 -48 48 -21 27 -21 34 -21 894 0 829 1 869 19 916 21 56 84 129
130 153 91 48 211 54 297 16z m3200 0 c66 -29 124 -86 156 -151 l28 -57 3
-858 c3 -956 7 -900 -66 -955 l-35 -27 -269 -3 -268 -3 2 923 3 923 23 50 c56
122 168 188 307 182 42 -2 88 -12 116 -24z m-771 -1413 l0 -640 -960 0 -960 0
0 640 0 640 960 0 960 0 0 -640z"/>
</g>
</svg>
